<?xml version="1.0" encoding="UTF-8" standalone="no"?>
<svg
   width="1111"
   height="899"
   version="1.1"
   id="svg30"
   sodipodi:docname="Tracing.svg"
   inkscape:version="1.2.2 (b0a8486541, 2022-12-01)"
   xmlns:inkscape="http://www.inkscape.org/namespaces/inkscape"
   xmlns:sodipodi="http://sodipodi.sourceforge.net/DTD/sodipodi-0.dtd"
   xmlns="http://www.w3.org/2000/svg"
   xmlns:svg="http://www.w3.org/2000/svg">
  <defs
     id="defs34">
    <inkscape:path-effect
       effect="fill_between_many"
       method="originald"
       linkedpaths="#path2,0,1|"
       id="path-effect332" />
  </defs>
  <sodipodi:namedview
     id="namedview32"
     pagecolor="#ffffff"
     bordercolor="#000000"
     borderopacity="0.25"
     inkscape:showpageshadow="2"
     inkscape:pageopacity="0"
     inkscape:pagecheckerboard="true"
     inkscape:deskcolor="#d1d1d1"
     showgrid="false"
     inkscape:zoom="1.7486195"
     inkscape:cx="423.19098"
     inkscape:cy="492.38842"
     inkscape:window-width="2327"
     inkscape:window-height="1259"
     inkscape:window-x="0"
     inkscape:window-y="0"
     inkscape:window-maximized="1"
     inkscape:current-layer="svg30" />
  <path
     inkscape:original-d="M 0,0"
     inkscape:path-effect="#path-effect332"
     d="m 226,583 v -1 l -69,4 v -1 l 50,-11.385 153,-32.097 48,-8.348 33,-6.17 v -2 l -8,-1 10.81,-12 8.19,-13 c -0.084,-7.38 5.874,-14.779 9.442,-21 7.566,-13.189 14.612,-25.79 23.712,-38.004 26.95,-36.169 59.255,-68.151 92.885,-98.296 17.069,-15.3 33.451,-32.178 53.961,-42.7 -4.034,-10.314 -0.04,-22.257 3.635,-32 10.49,-27.812 42.664,-54.285 73.365,-55.957 14.994,-0.816 27.315,13.261 41,11.957 0.598,4.962 7.464,7.905 12,8 l 1,1 -1,2 9,5 c 0.211,8.223 9.797,15.72 11.748,23.911 C 785.291,273.584 765.133,284.674 758,289 l 1,3 -5,6 c 8.013,3.03 24.183,-14.403 32.057,-2.971 2.342,3.4 -4.741,13.932 -6.587,16.971 -8.331,13.71 -7.77,30.372 -8.431,46 -0.81,19.194 3.076,38.008 4.162,57 2.037,35.636 -1.435,74.655 -18.094,107 -9.541,18.524 -28.331,33.939 -42.416,48.32 -6.973,7.119 -17.257,10.937 -25.405,16.48 C 656.564,609.059 612.267,629.736 572,628.946 538.555,628.29 505.358,618.022 472,618 v -1 c 14.357,-4.553 28.306,-14.517 42,-20.958 16.139,-7.592 34.306,-11.3 50,-19.946 32.63,-17.974 66.295,-38.399 96,-60.995 7.942,-6.041 14.07,-14.599 22.089,-20.402 7.151,-5.174 15.75,-8.15 22.911,-13.598 22.328,-16.986 34.49,-37.774 36.388,-65.101 0.314,-4.524 2.904,-8.348 2.273,-13 -2.725,-20.083 -18.265,-21.009 -31.332,-32.714 C 707.491,365.953 705.823,359.105 702,354 c 7.303,0 22.645,2.613 21,-8 l -28,6 -3,-5 h -1 l -2,2 v 1 c 6.54,8.596 10.603,21.175 18.213,28.535 7.489,7.244 20.947,9.372 25.42,19.48 2.658,6.007 1.016,12.588 0.571,18.815 -1.839,25.747 -13.636,42.283 -33.204,58.456 -6.003,4.962 -16.126,13.748 -24,14.714 4.458,-5.1 12.527,-7.237 16.353,-12.386 4.418,-5.946 -4.49,-4.751 -7.348,-2.998 -2,1.226 -3.886,2.377 -6.005,3.384 1.225,-1.228 12.612,-12.102 6.667,-13.079 -4.524,-0.743 -10.581,8.174 -13.667,10.754 -9.454,7.905 -21.997,14.482 -34,17.325 l 46,-30 c -2.364,-3.851 -4.761,-3.962 -9,-3 0.052,-2.401 1.738,-7.185 -1.323,-8.339 -4.34,-1.636 -8.86,4.695 -11.677,7.013 -5.615,4.62 -15.872,6.637 -23,8.326 8.261,-8.349 25.804,-9.188 31,-20 l -35,17 v -1 c 10.106,-5.215 21.769,-15.34 26,-26 l -8,-1 c -1.477,8.156 -8.037,12.856 -14,18 -13.698,11.817 -27.699,20.546 -44,28 v 2 c 4.749,1.778 8.355,2.223 13,0 -0.512,6.765 -4.471,6.492 -9,10 h -1 c -4.191,-3.018 -17.665,4.583 -23,6.355 -20.178,6.701 -44.454,23.128 -66,21.645 l 4,-6 -3,-1 5,-4 v -1 l -2,1 v -1 c 7.477,-8.191 13.608,-17.119 16.113,-28 0.687,-2.985 2.823,-16.336 -4.672,-11.781 -4.757,2.891 -6.931,20.398 -9.318,25.781 -4.597,10.369 -15.697,17.935 -24.123,25 v 1 c 1.367,8.846 -11.06,16.951 -16.135,23.17 -9.318,11.417 -19.853,18.273 -30.552,27.68 -6.164,5.421 -11.127,13.221 -17.572,18.887 -5.576,4.902 -14.32,9.251 -20.741,13.263 2.706,-2.76 13.365,-10.247 13.364,-14.022 0,-7.341 -14.043,6.295 -15.364,8.022 h -1 c -3.015,-6.03 -15.843,-9.461 -22,-11 -3.539,-0.885 -6.896,1.582 -6,-2 l -12,1 5,-2 v -1 l -6,-2 -6,-1 v 2 l -3,-1 -5,2 v -1 h 4 c 0.599,-4.581 10.135,-3.134 14,-3.778 9.774,-1.629 34.99,-2.806 39,-13.222 -10.633,-3.667 -25.063,5.385 -36,6.819 -15.75,2.066 -32.427,2.039 -48,5.235 -19.056,3.911 -39.281,8.946 -59,8.946 -0.643,-5.702 -18.063,-2.349 -23,-1.866 -20.059,1.966 -39.905,5.588 -60,7.255 -7.097,0.589 -17.338,-1.51 -22,4.611 l 31,-0.83 67,-8.17 v 1 l -75,11 c 2.304,11.049 27.541,3.06 36,2.17 22.937,-2.413 46.057,-7.85 68.961,-11.092 15.223,-2.155 32.307,-1.722 47.039,-6.078 v 4 l 24,4 c -8.641,16.657 -28,17.666 -28,39 24.438,-0.505 41.279,-13.089 63,-22 -8.929,8.713 -22.641,15.032 -32.985,22.254 -4.46,3.113 -11.761,6.706 -12.513,12.75 -2.098,16.878 24.981,11.54 33.498,9.568 15.563,-3.605 34.412,-10.326 49,-16.982 8.436,-3.848 15.812,-8.895 25,-11.065 15.146,-3.578 29.839,1.475 45,1.475 -3.964,10.409 -2.206,25.098 -2.273,36 -0.028,4.517 -1.217,8.61 0.406,13.039 5.058,13.81 18.944,28.695 28.094,40.17 7.283,9.134 14.251,23.084 24.773,28.791 v 1 c -10.636,3.401 -21.193,6.171 -32,8.895 -2.152,0.542 -9.675,2.038 -7.744,5.799 1.485,2.892 8.941,0.361 11.744,0.868 14.483,2.623 27.353,-3.729 42,-2.562 1.691,-4.618 4.542,-5.009 9,-6 l -21,14 c 2.134,5.291 6.451,3.039 11,2 l -1,3 c 3.309,-1.753 7.625,-1.394 10.571,-3.218 2.841,-1.758 3.407,-5.541 6.487,-7.365 8.013,-4.745 23.115,-5.869 31.942,-3.234 12.631,3.77 23.029,12.436 34.911,17.776 3.867,1.738 9.237,6.003 13.427,2.068 2.566,-2.409 -1.521,-4.521 -3.357,-5.281 C 644.701,769.494 637.826,760.412 628,756 v -1 l 22,2.386 10,0.614 16,1 v -5 L 656,748.299 627,746 v -1 c 18.988,-4.957 32.928,-5.36 52,-1 -0.318,-6.952 -10.518,-7.656 -16,-9.34 -12.996,-3.993 -28.065,-0.704 -41,2.228 -7.221,1.637 -14.573,5.894 -20,-0.888 l 14,-3 c -1.841,-10.996 -18.768,2.948 -24,-6 3.912,-0.328 25.034,1.536 24.079,-4.95 C 615.052,715.08 602.359,717.722 600,722 L 586,724 560.139,690.209 549.779,677 556.323,664.911 567,637 c 40.632,-0.112 76.897,-14.455 112,-34.532 14.15,-8.093 29.434,-15.426 41.791,-26.367 4.47,-3.958 7.346,-9.435 11.534,-13.662 23.698,-23.915 42.304,-47.228 48.096,-81.269 4.043,-23.768 4.806,-48.22 2.41,-72.17 -2.576,-25.748 -8.328,-55.575 -0.789,-81 2.97,-10.013 9.066,-32.417 19.962,-36.007 10.732,-3.536 24.755,-2.25 35.996,-3.083 3.549,-0.263 10.432,-1.329 11.079,-5.824 0.696,-4.841 -9.881,-6.854 -13.079,-7.805 -10.561,-3.14 -21.492,-4.563 -32,-8.049 -5.193,-1.723 -10.222,-1.517 -10,-8.232 -8.781,-7.522 -11.496,-19.551 -21.089,-27.115 -18.159,-14.317 -44.024,-28.95 -67.911,-27.61 -13.139,0.736 -29.829,9.087 -41,15.559 -7.914,4.585 -17.862,10.708 -23.351,18.205 -7.445,10.17 -15.34,23.692 -18.56,35.961 -1.982,7.555 -0.314,19.782 -6.212,25.385 -50.846,48.302 -104.403,91.479 -146.855,147.786 -13.192,17.496 -20.951,38.764 -33.062,56.999 -3.498,5.267 -4.832,14.128 -10.093,17.836 -5.219,3.679 -11.06,2.022 -16.867,3.245 -14.213,2.993 -28.85,4.877 -43,8.163 -52.155,12.114 -104.931,24.792 -158,34.264 -15.693,2.801 -31.323,7.807 -47,9.898 -4.792,0.639 -15.604,-0.627 -19.372,2.452 -7.412,6.056 2.383,13.068 8.372,12.763 23.949,-1.22 53.408,-1.315 76,-9.791 z"
     id="path334"
     class="UnoptimicedTransforms"
     style="fill:#ffffff" />
  <path
     style="fill:#000000; stroke:none;"
     d="M226 583L226 582L157 586L157 585L207 573.615L360 541.518L408 533.17L441 527L441 525L433 524L443.81 512L452 499C451.916 491.62 457.874 484.221 461.442 478C469.008 464.811 476.054 452.21 485.154 439.996C512.104 403.827 544.409 371.845 578.039 341.7C595.108 326.4 611.49 309.522 632 299C627.966 288.686 631.96 276.743 635.635 267C646.125 239.188 678.299 212.715 709 211.043C723.994 210.227 736.315 224.304 750 223C750.598 227.962 757.464 230.905 762 231L763 232L762 234L771 239C771.211 247.223 780.797 254.72 782.748 262.911C785.291 273.584 765.133 284.674 758 289L759 292L754 298C762.013 301.03 778.183 283.597 786.057 295.029C788.399 298.429 781.316 308.961 779.47 312C771.139 325.71 771.7 342.372 771.039 358C770.229 377.194 774.115 396.008 775.201 415C777.238 450.636 773.766 489.655 757.107 522C747.566 540.524 728.776 555.939 714.691 570.32C707.718 577.439 697.434 581.257 689.286 586.8C656.564 609.059 612.267 629.736 572 628.946C538.555 628.29 505.358 618.022 472 618L472 617C486.357 612.447 500.306 602.483 514 596.042C530.139 588.45 548.306 584.742 564 576.096C596.63 558.122 630.295 537.697 660 515.101C667.942 509.06 674.07 500.502 682.089 494.699C689.24 489.525 697.839 486.549 705 481.101C727.328 464.115 739.49 443.327 741.388 416C741.702 411.476 744.292 407.652 743.661 403C740.936 382.917 725.396 381.991 712.329 370.286C707.491 365.953 705.823 359.105 702 354C709.303 354 724.645 356.613 723 346L695 352L692 347L691 347L689 349L689 350C695.54 358.596 699.603 371.175 707.213 378.535C714.702 385.779 728.16 387.907 732.633 398.015C735.291 404.022 733.649 410.603 733.204 416.83C731.365 442.577 719.568 459.113 700 475.286C693.997 480.248 683.874 489.034 676 490C680.458 484.9 688.527 482.763 692.353 477.614C696.771 471.668 687.863 472.863 685.005 474.616C683.005 475.842 681.119 476.993 679 478C680.225 476.772 691.612 465.898 685.667 464.921C681.143 464.178 675.086 473.095 672 475.675C662.546 483.58 650.003 490.157 638 493L684 463C681.636 459.149 679.239 459.038 675 460C675.052 457.599 676.738 452.815 673.677 451.661C669.337 450.025 664.817 456.356 662 458.674C656.385 463.294 646.128 465.311 639 467C647.261 458.651 664.804 457.812 670 447L635 464L635 463C645.106 457.785 656.769 447.66 661 437L653 436C651.523 444.156 644.963 448.856 639 454C625.302 465.817 611.301 474.546 595 482L595 484C599.749 485.778 603.355 486.223 608 484C607.488 490.765 603.529 490.492 599 494L598 494C593.809 490.982 580.335 498.583 575 500.355C554.822 507.056 530.546 523.483 509 522L513 516L510 515L515 511L515 510L513 511L513 510C520.477 501.809 526.608 492.881 529.113 482C529.8 479.015 531.936 465.664 524.441 470.219C519.684 473.11 517.51 490.617 515.123 496C510.526 506.369 499.426 513.935 491 521L491 522C492.367 530.846 479.94 538.951 474.865 545.17C465.547 556.587 455.012 563.443 444.313 572.85C438.149 578.271 433.186 586.071 426.741 591.737C421.165 596.639 412.421 600.988 406 605C408.706 602.24 419.365 594.753 419.364 590.978C419.364 583.637 405.321 597.273 404 599L403 599C399.985 592.97 387.157 589.539 381 588C377.461 587.115 374.104 589.582 375 586L363 587L368 585L368 584L362 582L356 581L356 583L353 582L348 584L348 583L352 583C352.599 578.419 362.135 579.866 366 579.222C375.774 577.593 400.99 576.416 405 566C394.367 562.333 379.937 571.385 369 572.819C353.25 574.885 336.573 574.858 321 578.054C301.944 581.965 281.719 587 262 587C261.357 581.298 243.937 584.651 239 585.134C218.941 587.1 199.095 590.722 179 592.389C171.903 592.978 161.662 590.879 157 597L188 596.17L255 588L255 589L180 600C182.304 611.049 207.541 603.06 216 602.17C238.937 599.757 262.057 594.32 284.961 591.078C300.184 588.923 317.268 589.356 332 585L332 589L356 593C347.359 609.657 328 610.666 328 632C352.438 631.495 369.279 618.911 391 610C382.071 618.713 368.359 625.032 358.015 632.254C353.555 635.367 346.254 638.96 345.502 645.004C343.404 661.882 370.483 656.544 379 654.572C394.563 650.967 413.412 644.246 428 637.59C436.436 633.742 443.812 628.695 453 626.525C468.146 622.947 482.839 628 498 628C494.036 638.409 495.794 653.098 495.727 664C495.699 668.517 494.51 672.61 496.133 677.039C501.191 690.849 515.077 705.734 524.227 717.209C531.51 726.343 538.478 740.293 549 746L549 747C538.364 750.401 527.807 753.171 517 755.895C514.848 756.437 507.325 757.933 509.256 761.694C510.741 764.586 518.197 762.055 521 762.562C535.483 765.185 548.353 758.833 563 760C564.691 755.382 567.542 754.991 572 754L551 768C553.134 773.291 557.451 771.039 562 770L561 773C564.309 771.247 568.625 771.606 571.571 769.782C574.412 768.024 574.978 764.241 578.058 762.417C586.071 757.672 601.173 756.548 610 759.183C622.631 762.953 633.029 771.619 644.911 776.959C648.778 778.697 654.148 782.962 658.338 779.027C660.904 776.618 656.817 774.506 654.981 773.746C644.701 769.494 637.826 760.412 628 756L628 755L650 757.386L660 758L676 759L676 754L656 748.299L627 746L627 745C645.988 740.043 659.928 739.64 679 744C678.682 737.048 668.482 736.344 663 734.66C650.004 730.667 634.935 733.956 622 736.888C614.779 738.525 607.427 742.782 602 736L616 733C614.159 722.004 597.232 735.948 592 727C595.912 726.672 617.034 728.536 616.079 722.05C615.052 715.08 602.359 717.722 600 722L586 724L560.139 690.209L549.779 677L556.323 664.911L567 637C607.632 636.888 643.897 622.545 679 602.468C693.15 594.375 708.434 587.042 720.791 576.101C725.261 572.143 728.137 566.666 732.325 562.439C756.023 538.524 774.629 515.211 780.421 481.17C784.464 457.402 785.227 432.95 782.831 409C780.255 383.252 774.503 353.425 782.042 328C785.012 317.987 791.108 295.583 802.004 291.993C812.736 288.457 826.759 289.743 838 288.91C841.549 288.647 848.432 287.581 849.079 283.086C849.775 278.245 839.198 276.232 836 275.281C825.439 272.141 814.508 270.718 804 267.232C798.807 265.509 793.778 265.715 794 259C785.219 251.478 782.504 239.449 772.911 231.885C754.752 217.568 728.887 202.935 705 204.275C691.861 205.011 675.171 213.362 664 219.834C656.086 224.419 646.138 230.542 640.649 238.039C633.204 248.209 625.309 261.731 622.089 274C620.107 281.555 621.775 293.782 615.877 299.385C565.031 347.687 511.474 390.864 469.022 447.171C455.83 464.667 448.071 485.935 435.96 504.17C432.462 509.437 431.128 518.298 425.867 522.006C420.648 525.685 414.807 524.028 409 525.251C394.787 528.244 380.15 530.128 366 533.414C313.845 545.528 261.069 558.206 208 567.678C192.307 570.479 176.677 575.485 161 577.576C156.208 578.215 145.396 576.949 141.628 580.028C134.216 586.084 144.011 593.096 150 592.791C173.949 591.571 203.408 591.476 226 583z"
     id="path2"
     class="UnoptimicedTransforms" />
  <path
     style="fill:#ffffff; stroke:none;"
     d="M652 235L653 236L652 235M646 239L646 241L648 239L646 239M644 241L645 242L644 241M643 245L644 246L643 245z"
     id="path4" />
  <path
     style="fill:#000000; stroke:none;"
     d="M725.001 248.959C704.312 252.368 710.869 283.148 731.996 279.786C753.294 276.397 746.306 245.449 725.001 248.959z"
     id="path6" />
  <path
     style="fill:#ffffff; stroke:none;"
     d="M731 260C728.984 264.911 731.224 266.738 736 268L733 260L731 260M788 270L775 287L806.576 280.838L820 278L788 270M795.667 287.333L796.333 287.667L795.667 287.333M787 289L787 290L794 289L787 289M762 293L763 294L762 293M627 298L626 300L628 300L627 298M621 299L622 300L621 299z"
     id="path8" />
  <path
     style="fill:#000000; stroke:none;"
     d="M734 305L734 308C739.782 308 747.879 309.715 750 303L734 305M752 308L748 310L748 311L752 308M730 316C735.698 316.86 743.965 315.25 747 310C741.453 310.453 732.862 310.809 730 316M611 314L612 315L611 314M722 320L723 323C732.377 322.364 742.75 323.452 751 318C743.559 313.543 730.225 318.664 722 320M713 328L713 329L731 330L731 331L702 335C708.841 342.191 731.023 339.375 736 331L732 331L746 323L713 328M706 329L707 330L706 329M703 341C707.075 348.389 720.09 345.284 727 344L726 341L703 341M707 357L714 360L714 359L707 357M722 394L723 395L722 394M489 416L490 417L489 416M641 445L647 440L641 445M624 458L619 463L624 458z"
     id="path10" />
  <path
     style="fill:#ffffff; stroke:none;"
     d="M612 497L637 483.45L666 463C652.504 467.301 638.307 477.831 626 485.012C620.214 488.388 614.83 490.638 612 497M634 464L633 466L634 464M637 468L638 469L637 468M635 469L633 470L633 471L635 469M630 472L631 473L630 472z"
     id="path12" />
  <path
     style="fill:#000000; stroke:none;"
     d="M513 478L514 479L513 478z"
     id="path14" />
  <path
     style="fill:#ffffff; stroke:none;"
     d="M678 478L677 480L678 478M635 500L635 501C648.425 500.889 657.811 492.229 669 486L658 490.244L635 500M670 492C657.777 502.044 636.458 505.054 633 523C644.831 519.576 652.421 512.533 661.83 505.039C665.953 501.756 671.31 497.863 670 492M508 531L508 532C531.325 531.985 555.121 519.756 576 510.231C583.278 506.91 593.867 504.356 598 497L508 531M505 532C495.18 530.402 480.035 545.474 479 555C490.549 552.328 501.463 547.385 513 544.597C518.669 543.227 524.369 543.916 530 542.008C545.772 536.663 560.43 528.357 576 522.424C584.814 519.066 606.504 514.231 610 505L604 500C578.95 509.481 555.503 524.2 530 533.308C524.048 535.433 502.842 545.106 505 532M629.667 501.333L630.333 501.667L629.667 501.333M525 555C549.172 548.389 573.898 536.96 597 527.15C605.202 523.667 620.592 514.064 629 515L628 509C602.015 512.823 575.59 525.773 552 536.833C542.205 541.425 530.37 545.054 525 555M625 520L595 531.594L543 554L543 555L547 555C542.382 563.11 511.513 572.977 517 555L511 550C499.438 551.493 481.201 565.309 471 558L470 558L464.845 564.005C449.061 582.384 489.627 571.818 498 570.414C504.16 569.381 510.72 567.588 517 568.059C521.726 568.413 525.109 570.98 530 569.695C550.326 564.354 569.019 550.293 588.039 541.823C596.419 538.092 604.347 532.968 613 529.865C618.337 527.951 624.848 526.915 625 520M594 548C605.193 546.231 614.885 538.201 624 532C615.426 530.225 598.861 541.454 594 548M538 572L538 573L572 557.911L588 549C571.345 550.454 552.175 563.64 538 572M592 552L587 554L587 555L593 553L592 552z"
     id="path16" />
  <path
     style="fill:#000000; stroke:none;"
     d="M229 556L228 558L229 556M240 557L241 558L240 557M422 558L423 559L422 558z"
     id="path18" />
  <path
     style="fill:#ffffff; stroke:none;"
     d="M579 558L546 575L546 576C554.147 573.671 576.75 566.973 579 558z"
     id="path20" />
  <path
     style="fill:#000000; stroke:none;"
     d="M381.667 567.333L382.333 567.667L381.667 567.333M395 576L395 577L402 577L401 580L420 573L420 571L403 577L410 567L395 576M403 588C407.427 588.853 425.012 582.02 422.507 575.607C421.497 573.021 418.005 575.219 416.714 576.134C412.013 579.465 405.099 582.457 403 588z"
     id="path22" />
  <path
     style="fill:#ffffff; stroke:none;"
     d="M445 590C457.529 592.975 472.437 586.96 484.996 585.275C492.091 584.323 499.396 583.69 503 591C496.619 591.893 490.491 589.542 484 590.17C471.146 591.413 445.925 604.286 436 593L434 593L428 605C441.242 605 453.879 602.056 467 601.089C474.602 600.529 484.97 601.907 492 600.298C501.263 598.178 511.536 591.032 520 586.718C527.582 582.854 540.024 582.618 545 575C540.436 577.335 534.346 581.279 529 580.608C522.542 579.797 516.448 574.582 510 574.313C497.106 573.777 481.596 578.828 469 581.49C458.701 583.667 447.624 575.516 445 590M348 581L349 582L348 581M344 582L346 584L346 582L344 582M354 583L356 585L354 583M357.667 583.333L358.333 583.667L357.667 583.333M362 584L363 585L362 584M358 585L358 586L361 586L358 585M261 587L262 588L261 587M366 593C360.748 601.263 352.701 607.323 345 613.255C342.66 615.058 337.348 618.063 337.921 621.683C338.745 626.881 350.357 622.133 353 621.503C365.95 618.419 383.938 610.839 391 599L366 593M402 599L403 600L402 599M397 603L398 604L397 603M418 603C412.276 606.545 406.834 610.207 405 617C410.891 619.835 417.587 619.03 424 618.999C443.486 618.905 462.333 613.833 480 606L480 605C465.815 605.293 450.981 608.524 437 610.853C428.157 612.327 420.092 613.338 418 603M405 605C395.485 613.902 381.907 622.66 377 635L409 627L409 625C407.327 624.96 405.606 625.028 403.975 624.566C390.079 620.633 403.425 611.503 405 605M442 622L443 623L442 622M413 626L413 630L440 624L413 626M505 630C507.121 644.872 497.18 659.535 517 665C514.071 653.956 512.964 643.981 517 633L505 630M524 632C521.804 640.914 520.81 650.246 524 659C519.135 663.614 536.332 671.633 539 674L535 675L535 676L540 676L548.512 662L560 636L524 632M393 636C386.978 637.393 367.561 647.698 368 636C365.853 636.663 364.42 637.431 362.588 638.764C361.126 639.828 359.42 640.827 358.218 642.194C352.304 648.92 368.267 652.83 369 647C385.44 648.159 401.806 641.861 417 636L393 636z"
     id="path24" />
  <path
     style="fill:#000000; stroke:none;"
     d="M538 668L539 669L538 668z"
     id="path26" />
  <path
     style="fill:#ffffff; stroke:none;"
     d="M516 672C523.279 697.104 544.474 718.549 560 739L574 730C568.72 716.409 548.445 702.395 538 691.999C532.442 686.468 525.267 681.336 525 673L516 672M571 738L571 739L579 734L571 738M584 747L590 747L584 747z"
     id="path28" />
  <path
     style="fill:#ffffff;stroke-width:0.57188"
     d="m 561.58587,628.16231 c -8.60987,-0.65472 -18.58415,-1.96048 -37.17218,-4.86631 -22.3986,-3.50153 -33.09024,-4.78488 -43.34466,-5.20277 -4.81027,-0.19603 -8.54178,-0.53332 -8.29225,-0.74953 0.24952,-0.21621 1.99775,-0.99136 3.88495,-1.72257 4.6298,-1.79383 13.51086,-6.22945 21.19759,-10.58706 13.95655,-7.91199 21.25886,-11.20154 37.43061,-16.86177 19.54017,-6.8392 23.76067,-8.7598 41.88554,-19.06072 44.69676,-25.40253 77.25778,-47.61048 94.81356,-64.66673 9.83673,-9.55682 10.56193,-10.08123 24.56045,-17.76037 7.37224,-4.04418 13.5086,-8.79064 20.44721,-15.81591 14.18771,-14.36488 21.93428,-30.44388 24.13224,-50.08972 0.34421,-3.0768 1.18951,-7.83089 1.87834,-10.56464 1.13655,-4.51025 1.18762,-5.3488 0.55181,-9.05662 -1.58102,-9.21997 -6.45836,-15.15914 -18.3278,-22.31791 -12.09795,-7.29659 -14.3429,-9.55195 -20.03525,-20.12814 l -2.38544,-4.43206 6.73437,-0.003 c 3.7039,-0.002 7.68288,-0.26662 8.84216,-0.5886 2.79707,-0.77687 5.0407,-3.48049 5.0407,-6.07414 0,-1.8834 -0.094,-1.98356 -1.57267,-1.67555 -0.86496,0.18017 -6.97455,1.48735 -13.57685,2.90484 -6.60231,1.41773 -12.31179,2.57749 -12.68774,2.57749 -0.37595,0 -1.26209,-1.02939 -1.9692,-2.28752 -1.43289,-2.54949 -2.65996,-2.86801 -4.25575,-1.10468 -0.96417,1.0654 -0.98716,1.31627 -0.2316,2.52673 0.46137,0.73913 2.362,4.00271 4.22363,7.25238 9.09074,15.86888 9.72932,16.84002 13.47434,20.49143 2.8042,2.73411 5.74715,4.77056 11.12753,7.69996 11.33231,6.17001 15.08819,10.50828 15.62987,18.05358 0.30138,4.19818 -1.20455,19.44296 -2.44861,24.78781 -2.1632,9.29336 -6.70785,19.08183 -12.48918,26.89952 -8.10172,10.9554 -27.51198,27.68627 -37.34023,32.1858 -6.00885,2.75094 -3.86439,0.5511 4.46331,-4.57857 5.33596,-3.28683 8.05199,-6.18014 7.80493,-8.31436 -0.1615,-1.39515 -0.41048,-1.52939 -3.12874,-1.68692 -2.62413,-0.15208 -4.19963,0.2637 -7.81439,2.06224 -0.26061,0.12966 0.71733,-1.38232 2.17319,-3.35997 2.02958,-2.75699 2.60699,-4.00551 2.47541,-5.35252 -0.13946,-1.42772 -0.45909,-1.79 -1.7063,-1.93409 -2.39615,-0.2768 -4.46921,1.13256 -10.54944,7.17196 -5.92877,5.88897 -10.72062,9.37754 -18.74256,13.64497 -4.51506,2.40188 -13.30328,5.95277 -14.7327,5.95277 -0.34865,0 8.85888,-6.18403 20.46117,-13.74229 11.60228,-7.55827 21.35241,-14.13618 21.66694,-14.61759 0.4355,-0.66654 0.18922,-1.20798 -1.03267,-2.27033 -1.24615,-1.08343 -2.25066,-1.39505 -4.49701,-1.39505 h -2.89244 l 0.372,-2.48066 c 0.72379,-4.82658 -1.57953,-6.98776 -5.63942,-5.29144 -1.0866,0.45402 -3.63773,2.37173 -5.66918,4.26158 -4.01501,3.73515 -7.20277,5.55776 -12.95248,7.40561 -4.6821,1.50475 -10.47181,2.98012 -10.72014,2.73178 -0.47341,-0.47341 5.99458,-3.95391 13.2936,-7.15342 4.40347,-1.93025 9.20365,-4.38717 10.66705,-5.4598 2.86656,-2.1011 6.01852,-5.82675 5.42861,-6.41666 -0.19933,-0.19932 -7.08274,2.91085 -15.29649,6.9115 -8.21375,4.00065 -15.03877,7.16922 -15.16672,7.04128 -0.12794,-0.12794 1.25099,-1.2071 3.0643,-2.39814 6.72346,-4.41613 18.45175,-17.92801 18.45175,-21.2578 0,-0.41139 -1.31839,-0.83664 -3.28831,-1.06065 -1.80857,-0.20567 -3.68519,-0.4819 -4.17027,-0.61385 -0.63314,-0.17224 -1.06839,0.45712 -1.54279,2.23087 -1.04441,3.90491 -5.10987,8.79006 -12.48392,15.00093 -13.06276,11.00224 -22.31659,17.25966 -36.07796,24.39584 -7.58497,3.9333 -8.81303,4.75638 -8.66331,5.80638 0.25802,1.80955 5.66324,3.10183 9.60052,2.29529 2.66227,-0.54537 2.86934,-0.50754 2.86934,0.52418 0,1.31104 -3.46838,4.80958 -6.29909,6.35387 -1.41771,0.77343 -3.23148,1.10365 -6.28226,1.14376 -3.70108,0.0487 -5.11231,0.40032 -10.29383,2.56508 -3.30261,1.37977 -9.09289,3.72032 -12.8673,5.20121 -3.7744,1.4809 -12.78151,5.33587 -20.01579,8.56662 -19.03504,8.50081 -30.56084,12.03153 -39.27614,12.03153 h -2.81196 l 1.74311,-2.53353 c 2.02073,-2.93703 2.05642,-3.11602 0.80394,-4.03186 -0.83331,-0.60933 -0.70439,-0.86581 1.14376,-2.27547 2.12635,-1.62184 2.64663,-2.88259 1.36808,-3.31515 -0.45957,-0.15549 0.004,-1.04045 1.29891,-2.47815 8.22312,-9.13186 14.28481,-22.60595 14.28481,-31.75267 0,-4.67389 -0.82112,-6.2261 -3.29363,-6.2261 -1.43736,0 -2.38773,0.45117 -3.53307,1.67725 -1.99347,2.13402 -2.90725,4.58149 -5.71656,15.31119 -1.25228,4.7829 -2.77833,9.67911 -3.39121,10.88046 -2.9329,5.74895 -7.82723,10.90839 -19.09316,20.12735 -4.23951,3.46921 -4.43207,3.73036 -4.43207,6.01102 0,4.14356 -2.39419,7.80657 -10.80885,16.53705 -13.52659,14.03427 -16.71557,17.05601 -26.15771,24.78595 -5.3056,4.3435 -11.61281,10.16917 -14.85962,13.72511 -9.68836,10.61082 -15.21432,15.75569 -20.2703,18.8724 -6.43699,3.96802 -7.73152,4.31038 -4.14836,1.09709 3.78638,-3.39553 5.56254,-6.21716 5.09249,-8.08999 -0.77772,-3.09869 -5.4408,-1.13478 -12.22774,5.14989 l -3.60288,3.33625 -2.11592,-1.98766 c -1.16376,-1.09321 -2.75928,-2.37071 -3.54562,-2.83889 -4.7612,-2.83479 -15.49662,-6.18588 -19.87282,-6.20338 -2.39936,-0.01 -3.00237,-0.2008 -3.00237,-0.95204 0,-0.8239 -0.58292,-0.89765 -4.718,-0.59697 -3.66555,0.26653 -4.43098,0.2016 -3.43128,-0.29111 0.7077,-0.3488 1.28673,-0.97053 1.28673,-1.38162 0,-0.82294 -5.5673,-2.7005 -9.86493,-3.32694 -2.31335,-0.3372 -2.71643,-0.25439 -2.71643,0.55809 0,0.63501 -0.30249,0.83797 -0.90459,0.60692 -0.49752,-0.19092 -1.20522,-0.35743 -1.57267,-0.37002 -0.36744,-0.0126 0.0708,-0.42315 0.9738,-0.91234 1.04283,-0.56493 4.27696,-1.07252 8.86414,-1.3912 22.5971,-1.56986 37.97552,-5.97922 41.40115,-11.87068 1.18156,-2.03206 1.01119,-2.19369 -2.85254,-2.70623 -4.08932,-0.54247 -9.21575,0.48234 -20.16839,4.03179 -10.62249,3.44246 -12.82194,3.80702 -32.88939,5.45134 -17.34546,1.42127 -21.26246,1.9926 -39.17836,5.71444 -7.70355,1.60033 -17.99531,3.54739 -22.87059,4.3268 -10.50485,1.6794 -24.59083,2.50473 -24.59083,1.44083 0,-1.30228 -3.86142,-2.34621 -8.67844,-2.34621 -4.64359,0 -8.12658,0.3639 -30.24849,3.16038 -6.15493,0.77806 -11.68786,1.39631 -12.29542,1.37389 -0.60755,-0.0224 1.98351,-0.88779 5.75792,-1.92305 8.03497,-2.20386 10.00789,-2.94131 10.00789,-3.74083 0,-0.32232 -0.87567,-0.58603 -1.94592,-0.58603 -2.11648,0 -59.26076,3.23471 -64.39212,3.64499 -2.14441,0.17145 -2.78137,0.0884 -2.00158,-0.26086 5.68624,-2.54711 190.41604,-41.43147 228.16218,-48.02658 14.47836,-2.5297 32.75793,-5.81087 40.62128,-7.2915 13.07368,-2.4617 14.31173,-2.79484 14.4693,-3.89344 0.14223,-0.99161 -0.20731,-1.26414 -2.00158,-1.56064 -1.19564,-0.19758 -2.90303,-0.36207 -3.79421,-0.36553 -0.89118,-0.003 -1.53455,-0.23484 -1.4297,-0.51418 0.10484,-0.27933 2.43714,-3.0458 5.18289,-6.14771 6.51615,-7.36137 12.4844,-16.68327 13.09762,-20.45735 0.45846,-2.82166 3.55915,-9.97361 5.55848,-12.82101 0.58983,-0.84002 4.23386,-6.93158 8.09782,-13.53679 13.53577,-23.13857 19.10229,-31.08071 36.15021,-51.57809 19.96143,-24.00038 40.68274,-44.94677 79.07669,-79.9356 25.02741,-22.80776 33.64054,-29.79968 44.86657,-36.42159 l 6.12363,-3.61215 -0.7613,-2.52962 c -2.89565,-9.6215 2.38704,-29.32871 11.66678,-43.52318 13.59984,-20.80261 37.08488,-37.09168 58.98331,-40.91045 9.81726,-1.71198 13.9384,-0.93085 27.13491,5.14324 9.47376,4.36058 14.49235,6.02946 18.13139,6.02946 1.78467,0 2.18698,0.26324 2.99636,1.9606 1.11288,2.33373 4.75976,4.63019 8.92367,5.6193 2.61384,0.62089 2.91973,0.85063 2.79203,2.09694 -0.12295,1.20035 0.4877,1.75552 4.2887,3.89894 3.41538,1.92599 4.43333,2.7873 4.43767,3.75481 0.009,1.88698 2.24995,6.31774 6.42158,12.6931 4.56629,6.97854 5.83849,10.36395 5.02705,13.37739 -1.46629,5.44529 -6.71809,10.66766 -17.92654,17.82597 -6.41649,4.0979 -6.64861,4.31582 -6.35827,5.96882 0.24682,1.40479 -0.1237,2.22628 -2.04493,4.53397 -2.03131,2.43987 -2.22049,2.88881 -1.40865,3.34311 1.44399,0.8081 4.51848,0.0119 11.89475,-3.08044 8.7095,-3.65123 11.64662,-4.34431 14.62657,-3.45148 2.27637,0.682 5.20359,3.48531 5.20359,4.98326 0,1.69757 -2.33355,6.82383 -5.68088,12.47951 -3.98171,6.72762 -6.43479,12.99641 -7.70414,19.68773 -2.58478,13.6259 -2.63607,42.53181 -0.11489,64.72863 2.18584,19.24395 2.82738,31.23803 2.43181,45.46443 -0.84901,30.53416 -5.56977,53.93323 -15.35246,76.09696 -6.12317,13.8728 -12.5961,22.23349 -32.444,41.90613 -15.24471,15.11009 -18.85354,18.08675 -28.34709,23.38147 -3.14534,1.75421 -9.19297,5.43837 -13.43918,8.18703 -35.96426,23.28036 -70.55253,36.75165 -101.2227,39.42376 -7.39992,0.64472 -14.05508,0.63405 -22.87519,-0.0367 z m -148.4752,-42.27822 c 7.42001,-3.08896 11.86121,-8.42457 9.21499,-11.07079 -1.24396,-1.24396 -2.28642,-0.92663 -7.91717,2.41003 -5.25615,3.11467 -9.76882,6.96026 -11.03035,9.39979 l -0.89327,1.72739 3.12545,-0.32257 c 1.71899,-0.17742 5.09415,-1.14215 7.50035,-2.14385 z m -3.23227,-8.80984 c 4.64838,-1.70375 8.90196,-3.27536 9.45239,-3.49247 1.10497,-0.43584 1.38916,-2.5599 0.34251,-2.5599 -0.36206,0 -3.7137,1.06614 -7.44808,2.36919 -3.7344,1.30305 -6.94339,2.21561 -7.13109,2.0279 -0.1877,-0.1877 0.87328,-2.04331 2.35773,-4.12358 1.48445,-2.08027 2.5631,-3.9182 2.39701,-4.08429 -0.48799,-0.488 -15.25188,8.59485 -15.25188,9.38306 0,0.49704 1.06062,0.7184 3.44218,0.7184 3.38609,0 3.43633,0.0233 3.08334,1.4297 -0.19736,0.78633 -0.20963,1.4297 -0.0273,1.4297 0.18236,0 4.13479,-1.39398 8.78316,-3.09771 z M 714.149,359.32607 c -0.21348,-0.6404 -7.30569,-2.9662 -7.30569,-2.39581 0,0.3793 5.83138,2.99463 6.76724,3.03507 0.41939,0.0181 0.66168,-0.26955 0.53845,-0.63926 z m 8.27803,-14.27024 c 2.75218,-0.37536 5.00395,-0.7313 5.00395,-0.79099 0,-0.0597 -0.28252,-0.91896 -0.62783,-1.9095 l -0.62782,-1.80098 h -11.66759 c -6.41717,0 -11.66759,0.10763 -11.66759,0.23917 0,1.93399 3.42912,4.23516 7.29308,4.89416 2.93623,0.50078 4.62605,0.41393 12.2938,-0.63186 z m -0.0503,-6.45465 c 5.23788,-1.0103 8.85561,-2.54934 11.54676,-4.91224 2.41934,-2.1242 2.57672,-2.70724 0.79898,-2.95973 -0.96316,-0.13679 0.33798,-1.09855 5.17448,-3.82474 3.55366,-2.0031 6.343,-3.76022 6.19849,-3.90472 -0.39431,-0.39429 -32.59161,4.50405 -33.20926,5.0523 -0.29357,0.26058 -0.37562,0.63192 -0.18233,0.8252 0.29685,0.29686 12.57326,1.27981 16.96703,1.35852 3.12012,0.0559 0.24014,0.5976 -12.2509,2.30425 -7.23256,0.9882 -13.77393,1.98822 -14.53637,2.22228 l -1.38623,0.42554 1.75547,1.25001 c 3.91068,2.78465 11.46955,3.63973 19.12388,2.16333 z m 14.12268,-16.0676 c 4.86115,-0.31645 9.34903,-1.45265 12.91756,-3.27039 l 2.25613,-1.14921 -1.68425,-0.88787 c -0.92633,-0.48833 -3.66449,-1.00442 -6.0848,-1.14688 l -4.40055,-0.259 2.82577,-1.40816 c 1.5542,-0.77449 3.31827,-2.0342 3.92012,-2.79936 0.67813,-0.86205 1.1823,-1.12737 1.32556,-0.69756 0.15172,0.45524 0.96104,0.13699 2.3546,-0.92595 2.41551,-1.84237 2.41591,-2.51097 0,-1.30334 -0.89419,0.44714 -4.17838,1.11667 -7.29827,1.48785 -3.11983,0.37118 -6.74704,1.15021 -8.06042,1.73118 -2.30353,1.01898 -4.8532,3.20785 -4.8532,4.16648 0,0.25522 1.35107,0.48373 3.00237,0.50779 2.77305,0.0404 2.49248,0.16051 -3.67415,1.57267 -3.67211,0.84091 -6.8318,1.68624 -7.02155,1.87852 -0.18975,0.19228 -0.0844,1.035 0.23409,1.87272 0.57509,1.51259 0.61081,1.52105 5.16292,1.22308 2.52113,-0.16503 6.60584,-0.43169 9.07721,-0.59257 z m 10.55198,-15.30986 c 1.66503,-1.091 3.59312,-3.69385 3.10085,-4.18611 -0.16991,-0.16989 -3.93625,0.13792 -8.36975,0.68401 l -8.06081,0.9929 v 1.97215 1.97215 l 5.90323,-0.21852 c 4.37167,-0.16183 6.29839,-0.47745 7.42648,-1.21658 z m -10.47031,-28.50389 c 3.1578,-1.39094 5.43611,-3.49376 7.04801,-6.50509 1.78055,-3.3264 1.75058,-10.40984 -0.0595,-14.08384 -2.76698,-5.6161 -7.66199,-9.03353 -13.62486,-9.51218 -11.81492,-0.94838 -19.68408,7.3628 -17.39791,18.37519 2.19978,10.59633 13.77636,16.24434 24.03429,11.72592 z"
     id="path474" />
</svg>
